<?xml version="1.0" encoding="UTF-8"?>
<svg id="Layer_2" data-name="Layer 2" xmlns="http://www.w3.org/2000/svg" viewBox="0 0 264.68 287">
  <defs>
    <style>
      .cls-1 {
        fill: #fff;
      }
    </style>
  </defs>
  <g id="Layer_1-2" data-name="Layer 1">
    <g>
      <path d="M136.33,0c.53.33,1.88.58,3.23.75,21.12,2.66,33.45,13.88,33.51,35.79.19,7.25-.53,13.84-2.44,20.73l-12.97,43.69,36.38-35.34c6.82-6.62,14.87-10.92,23.7-13.82,26.98-6.77,41.84,19.27,46.94,40.41v7.95c-4.59,19.81-21.24,29.04-40.63,33.5l-42.64,9.79,51.32,13.94c7.78,2.11,14.48,6.41,20.56,11.28,6.01,5.01,9.16,11.16,11.38,18.14v10.34c-6.08,20.52-22,46.28-48.29,38.47-16.06-4.77-24.4-13.79-35.42-25.72l-10.35-11.2-13.31-13.67,13.06,48.83c4.9,18.32,1.46,42.36-19.74,49.14-13.1,4.19-27.07,3.7-39.8-1.64-11.37-4.78-17.6-15.37-18.74-27.47-1.32-9.61.57-18.97,3.39-28.29l12.26-40.55-38.72,37.87c-6.35,6.21-14.47,10.11-22.78,12.28-11.49,3-22.41-.94-30.17-9.61-13.37-14.95-23.02-38.91-6.87-55.93,8.35-8.79,19.55-13.55,31.45-16.29l43.32-9.97-41.88-11.21c-7.17-1.92-13.89-4.16-20.56-7.24-4.98-3.15-9.38-6.35-13.4-10.65-15.53-16.6-4.21-41.13,9.83-55.01,16.44-16.27,37.99-8.71,53.47,4.7,4.69,4.06,8.89,8.53,13.1,13.09l10.33,11.2,13.3,13.65-11.87-44.51c-2.57-9.65-4.05-19.13-2.47-29,1.52-9.48,6.05-18.15,14.7-22.8,5.93-3.19,12.7-4.38,19.04-5.62h8.77Z"/>
      <path class="cls-1" d="M127.56,0c-6.34,1.24-13.1,2.43-19.04,5.62-8.65,4.65-13.18,13.33-14.7,22.8-1.58,9.87-.1,19.35,2.47,29l11.87,44.51-13.3-13.65-10.33-11.2c-4.21-4.56-8.42-9.04-13.1-13.09-15.48-13.41-37.03-20.96-53.47-4.7-14.04,13.89-25.36,38.41-9.83,55.01,4.01,4.29,8.42,7.49,13.4,10.65,6.67,3.08,13.39,5.32,20.56,7.24l41.88,11.21-43.32,9.97c-11.9,2.74-23.1,7.49-31.45,16.29-16.15,17.02-6.5,40.98,6.87,55.93,7.76,8.67,18.68,12.61,30.17,9.61,8.32-2.17,16.44-6.07,22.78-12.28l38.72-37.87-12.26,40.55c-2.82,9.33-4.71,18.68-3.39,28.29,1.15,12.1,7.37,22.7,18.74,27.47,12.72,5.34,26.7,5.83,39.8,1.64,21.21-6.78,24.64-30.82,19.74-49.14l-13.06-48.83,13.31,13.67,10.35,11.2c11.02,11.93,19.36,20.95,35.42,25.72,26.29,7.81,42.21-17.95,48.29-38.47v89.84H0V0h127.56Z"/>
      <path class="cls-1" d="M136.33,0h128.35v92.22c-5.1-21.14-19.96-47.18-46.94-40.41-8.83,2.9-16.88,7.19-23.7,13.82l-36.38,35.34,12.97-43.69c1.91-6.89,2.63-13.48,2.44-20.73-.06-21.91-12.39-33.14-33.51-35.79-1.35-.17-2.71-.41-3.23-.75Z"/>
      <path class="cls-1" d="M264.68,186.83c-2.22-6.99-5.37-13.14-11.38-18.14-6.08-4.87-12.78-9.17-20.56-11.28l-51.32-13.94,42.64-9.79c19.39-4.45,36.04-13.68,40.63-33.5v86.66Z"/>
    </g>
  </g>
</svg>